<svg viewBox="0 0 1069 1069" style="fill-rule:evenodd;clip-rule:evenodd;stroke-linejoin:round;stroke-miterlimit:2" xml:space="preserve" xmlns="http://www.w3.org/2000/svg"><path style="fill:none" d="M1.167.143h1066.67v1066.67H1.167z"/><path d="M1023.65 337.914A114.584 114.584 0 0 0 909.067 223.33H284.066c-63.283 0-114.583 51.301-114.583 114.584v391.125a114.583 114.583 0 0 0 114.583 114.583h356.097a114.58 114.58 0 0 0 82.742-35.316l69.536-72.584a52.1 52.1 0 0 1 37.609-16.054h79.017c63.283 0 114.583-51.301 114.583-114.584zm-62.5 0v267.171c0 28.764-23.318 52.082-52.082 52.083h-79.017a114.6 114.6 0 0 0-82.74 35.316l-69.537 72.584a52.08 52.08 0 0 1-37.61 16.054H284.066a52.08 52.08 0 0 1-52.083-52.083V337.914c0-28.765 23.317-52.083 52.081-52.084h625.002a52.087 52.087 0 0 1 52.084 52.084M310.06 741.809h113.894c17.248 0 31.25-14.002 31.25-31.25s-14.002-31.25-31.25-31.25H310.06c-17.247 0-31.25 14.003-31.25 31.25 0 17.248 14.003 31.25 31.25 31.25" style="fill-opacity:.5"/><path d="M149.084 970.976V383.197c0-17.248-14.003-31.25-31.25-31.25-17.248 0-31.25 14.002-31.25 31.25v587.779c0 17.248 14.002 31.25 31.25 31.25s31.25-14.002 31.25-31.25M785.709 223.33H284.07c-63.283 0-114.583 51.301-114.583 114.584v391.125A114.583 114.583 0 0 0 284.07 843.622h356.097a114.58 114.58 0 0 0 82.742-35.316l69.536-72.584a52.1 52.1 0 0 1 37.609-16.054h79.017c63.282 0 114.582-51.3 114.583-114.583v-133c0-17.247-14.003-31.25-31.25-31.25-17.248 0-31.25 14.003-31.25 31.25v132.998c-.001 28.767-23.318 52.084-52.082 52.085h-79.017a114.6 114.6 0 0 0-82.74 35.316l-69.537 72.584a52.08 52.08 0 0 1-37.61 16.054H284.07a52.08 52.08 0 0 1-52.083-52.083V337.914c0-28.765 23.317-52.083 52.081-52.084h501.641c17.247 0 31.25-14.002 31.25-31.25s-14.003-31.25-31.25-31.25m-54.82 317.613a35.4 35.4 0 0 1 1.199 9.138v.026a35.45 35.45 0 0 1-35.453 35.452h-.026a35.45 35.45 0 0 1-25.069-10.383c-12.195-12.196-31.998-12.196-44.194 0s-12.196 31.998 0 44.194a97.95 97.95 0 0 0 69.263 28.689h.026a97.95 97.95 0 0 0 97.953-97.952v-.026c0-13.724-2.88-27.15-8.305-39.47a35.5 35.5 0 0 1 7.143-5.436l.023-.014a35.45 35.45 0 0 1 48.429 12.977l.013.023a35.45 35.45 0 0 1 3.542 26.901c-4.464 16.66 5.437 33.81 22.097 38.274s33.809-5.438 38.273-22.097a97.95 97.95 0 0 0-9.785-74.328l-.014-.023a97.95 97.95 0 0 0-133.805-35.853l-.023.013a97.95 97.95 0 0 0-29.921 26.779 35.5 35.5 0 0 1-8.694-3.58l-.023-.013a35.453 35.453 0 0 1-12.976-48.429l.013-.023a35.45 35.45 0 0 1 21.527-16.518c16.66-4.464 26.561-21.613 22.097-38.273s-21.614-26.561-38.273-22.097a97.95 97.95 0 0 0-59.477 45.638l-.014.023a97.95 97.95 0 0 0 35.853 133.805l.023.014a97.9 97.9 0 0 0 38.578 12.569m-333.333-12.097a35.4 35.4 0 0 1 1.198 9.137v.027a35.45 35.45 0 0 1-35.452 35.452h-.027a35.45 35.45 0 0 1-25.068-10.384c-12.196-12.195-31.998-12.195-44.194 0s-12.196 31.999 0 44.195a97.95 97.95 0 0 0 69.262 28.689h.027a97.96 97.96 0 0 0 69.263-28.689 97.96 97.96 0 0 0 28.689-69.263v-.027a97.9 97.9 0 0 0-8.304-39.469 35.4 35.4 0 0 1 7.143-5.437l.023-.013a35.456 35.456 0 0 1 48.429 12.976l.013.023a35.46 35.46 0 0 1 3.542 26.902c-4.464 16.66 5.437 33.809 22.097 38.273 16.659 4.464 33.809-5.437 38.273-22.097a97.95 97.95 0 0 0-9.786-74.328l-.013-.023a97.953 97.953 0 0 0-133.805-35.853l-.023.014a97.9 97.9 0 0 0-29.921 26.779 35.5 35.5 0 0 1-8.694-3.58l-.023-.014a35.447 35.447 0 0 1-12.963-48.451 35.45 35.45 0 0 1 21.527-16.518c16.659-4.464 26.561-21.614 22.097-38.273s-21.614-26.561-38.274-22.098a97.96 97.96 0 0 0-59.477 45.639l-.013.023a97.954 97.954 0 0 0 35.853 133.805l.023.013a97.9 97.9 0 0 0 38.578 12.57"/></svg>